<?xml version="1.0" encoding="iso-8859-1"?>
<!-- Generator: Adobe Illustrator 19.1.0, SVG Export Plug-In . SVG Version: 6.00 Build 0)  -->
<svg version="1.1" id="Capa_1" xmlns="http://www.w3.org/2000/svg" xmlns:xlink="http://www.w3.org/1999/xlink" x="0px" y="0px"
	 viewBox="0 0 486.325 486.325" style="enable-background:new 0 0 486.325 486.325;" xml:space="preserve">
<g>
	<g>
		<path d="M116.173,243.125c-1.9-6.4-8.6-10-14.9-8.1c-6.4,1.9-10,8.6-8.1,14.9c1.6,5.2,6.3,8.6,11.5,8.6c1.1,0,2.3-0.2,3.4-0.5
			C114.473,256.125,118.073,249.425,116.173,243.125z"/>
		<path d="M90.473,382.525c-5.6-3.6-13-2-16.6,3.6s-2,13,3.6,16.6c2,1.3,4.3,1.9,6.5,1.9c3.9,0,7.8-1.9,10.1-5.5
			C97.673,393.525,96.073,386.125,90.473,382.525z"/>
		<path d="M162.573,243.125c0-6.6-5.4-12-12-12s-12,5.4-12,12s5.4,12,12,12S162.573,249.725,162.573,243.125z"/>
		<path d="M47.573,324.925c5.9,0,11-4.3,11.9-10.3c0.9-6.6-3.6-12.6-10.2-13.6c-6.6-0.9-12.6,3.6-13.5,10.2
			c-0.9,6.6,3.7,12.6,10.2,13.5C46.473,324.925,46.973,324.925,47.573,324.925z"/>
		<path d="M75.473,279.225c4.3-5,3.8-12.6-1.3-16.9c-5-4.3-12.6-3.8-16.9,1.3c-4.3,5-3.8,12.6,1.3,16.9c2.3,2,5,2.9,7.8,2.9
			C69.773,283.425,73.073,281.925,75.473,279.225z"/>
		<path d="M431.973,140.125c1.7,0,3.4-0.4,5-1.1c6-2.8,8.6-9.9,5.9-15.9s-9.9-8.6-15.9-5.9c-6,2.7-8.7,9.9-5.9,15.9
			C423.073,137.525,427.473,140.125,431.973,140.125z"/>
		<path d="M208.873,243.125c0-6.6-5.4-12-12-12s-12,5.4-12,12s5.4,12,12,12C203.473,255.125,208.873,249.725,208.873,243.125z"/>
		<path d="M49.073,347.225c-6,2.8-8.7,9.9-5.9,15.9c2,4.4,6.4,7,10.9,7c1.7,0,3.4-0.4,5-1.1c6-2.8,8.7-9.9,5.9-15.9
			C62.273,347.125,55.073,344.425,49.073,347.225z"/>
		<path d="M378.173,228.225c-6.4,1.9-10,8.6-8.1,15c1.6,5.2,6.3,8.5,11.5,8.5c1.1,0,2.3-0.2,3.5-0.5c6.4-1.9,9.9-8.6,8-15
			C391.173,229.925,384.473,226.325,378.173,228.225z"/>
		<path d="M427.673,205.725c-5-4.3-12.6-3.7-16.9,1.3s-3.7,12.6,1.3,16.9c2.3,1.9,5.1,2.9,7.8,2.9c3.4,0,6.7-1.4,9.1-4.2
			C433.273,217.625,432.673,210.025,427.673,205.725z"/>
		<path d="M255.173,243.125c0-6.6-5.4-12-12-12s-12,5.4-12,12s5.4,12,12,12S255.173,249.725,255.173,243.125z"/>
		<path d="M412.173,100.125c3.6-5.6,2-13-3.6-16.6s-13-2-16.6,3.6s-2,13,3.6,16.6c2,1.3,4.3,1.9,6.5,1.9
			C405.973,105.625,409.873,103.725,412.173,100.125z"/>
		<path d="M335.673,231.125c-6.6,0-12,5.4-12,12c0,6.6,5.4,12,12,12s12-5.4,12-12S342.273,231.125,335.673,231.125z"/>
		<path d="M301.373,243.125c0-6.6-5.4-12-12-12s-12,5.4-12,12s5.4,12,12,12S301.373,249.725,301.373,243.125z"/>
		<path d="M440.273,161.325c-6.6-0.9-12.6,3.7-13.5,10.2c-0.9,6.6,3.7,12.6,10.2,13.5c0.6,0.1,1.1,0.1,1.7,0.1
			c5.9,0,11-4.3,11.9-10.4C451.373,168.325,446.873,162.225,440.273,161.325z"/>
		<path d="M358.273,68.825h-183l48.3-48.3c4.7-4.7,4.7-12.3,0-17s-12.3-4.7-17,0l-68.8,68.8c-4.7,4.7-4.7,12.3,0,17l68.8,68.8
			c2.3,2.3,5.4,3.5,8.5,3.5s6.1-1.2,8.5-3.5c4.7-4.7,4.7-12.3,0-17l-48.3-48.3h182.9c6.6,0,12-5.4,12-12
			S364.873,68.825,358.273,68.825z"/>
		<path d="M265.673,328.225c-4.7-4.7-12.3-4.7-17,0s-4.7,12.3,0,17l48.3,48.3h-169.1c-6.6,0-12,5.4-12,12s5.4,12,12,12h169.1
			l-48.3,48.3c-4.7,4.7-4.7,12.3,0,17c2.3,2.3,5.4,3.5,8.5,3.5c3.1,0,6.1-1.2,8.5-3.5l68.8-68.8c4.7-4.7,4.7-12.3,0-17
			L265.673,328.225z"/>
	</g>
</g>
<g>
</g>
<g>
</g>
<g>
</g>
<g>
</g>
<g>
</g>
<g>
</g>
<g>
</g>
<g>
</g>
<g>
</g>
<g>
</g>
<g>
</g>
<g>
</g>
<g>
</g>
<g>
</g>
<g>
</g>
</svg>
