<?xml version="1.0" encoding="iso-8859-1"?>
<svg width="13" height="15" viewBox="0 0 13 15" fill="none" xmlns="http://www.w3.org/2000/svg">
    <path fill-rule="evenodd" clip-rule="evenodd" d="M3 2V1H8V2H3ZM2.75 0C2.33579 0 2 0.335786 2 0.75V1H1.5C0.67157 1 0 1.67157 0 2.5V12.5C0 13.3284 0.67157 14 1.5 14H5V13H1.5C1.22386 13 1 12.7761 1 12.5V2.5C1 2.22386 1.22386 2 1.5 2H2V2.25C2 2.66421 2.33579 3 2.75 3H8.25C8.6642 3 9 2.66421 9 2.25V2H9.5C9.7761 2 10 2.22386 10 2.5V7H11V2.5C11 1.67157 10.3284 1 9.5 1H9V0.75C9 0.335786 8.6642 0 8.25 0H2.75ZM7 8.5C7 8.77614 6.77614 9 6.5 9C6.22386 9 6 8.77614 6 8.5C6 8.22386 6.22386 8 6.5 8C6.77614 8 7 8.22386 7 8.5ZM8.5 9C8.7761 9 9 8.77614 9 8.5C9 8.22386 8.7761 8 8.5 8C8.2239 8 8 8.22386 8 8.5C8 8.77614 8.2239 9 8.5 9ZM11 8.5C11 8.77614 10.7761 9 10.5 9C10.2239 9 10 8.77614 10 8.5C10 8.22386 10.2239 8 10.5 8C10.7761 8 11 8.22386 11 8.5ZM12.5 9C12.7761 9 13 8.77614 13 8.5C13 8.22386 12.7761 8 12.5 8C12.2239 8 12 8.22386 12 8.5C12 8.77614 12.2239 9 12.5 9ZM13 10.5C13 10.7761 12.7761 11 12.5 11C12.2239 11 12 10.7761 12 10.5C12 10.2239 12.2239 10 12.5 10C12.7761 10 13 10.2239 13 10.5ZM12.5 13C12.7761 13 13 12.7761 13 12.5C13 12.2239 12.7761 12 12.5 12C12.2239 12 12 12.2239 12 12.5C12 12.7761 12.2239 13 12.5 13ZM12.5 15C12.7761 15 13 14.7761 13 14.5C13 14.2239 12.7761 14 12.5 14C12.2239 14 12 14.2239 12 14.5C12 14.7761 12.2239 15 12.5 15ZM6.5 11C6.77614 11 7 10.7761 7 10.5C7 10.2239 6.77614 10 6.5 10C6.22386 10 6 10.2239 6 10.5C6 10.7761 6.22386 11 6.5 11ZM7 12.5C7 12.7761 6.77614 13 6.5 13C6.22386 13 6 12.7761 6 12.5C6 12.2239 6.22386 12 6.5 12C6.77614 12 7 12.2239 7 12.5ZM6.5 15C6.77614 15 7 14.7761 7 14.5C7 14.2239 6.77614 14 6.5 14C6.22386 14 6 14.2239 6 14.5C6 14.7761 6.22386 15 6.5 15ZM9 14.5C9 14.7761 8.7761 15 8.5 15C8.2239 15 8 14.7761 8 14.5C8 14.2239 8.2239 14 8.5 14C8.7761 14 9 14.2239 9 14.5ZM10.5 15C10.7761 15 11 14.7761 11 14.5C11 14.2239 10.7761 14 10.5 14C10.2239 14 10 14.2239 10 14.5C10 14.7761 10.2239 15 10.5 15Z" fill="white"/>
</svg>
