<?xml version="1.0" encoding="iso-8859-1"?>
<svg version="1.1" id="open_eye" xmlns="http://www.w3.org/2000/svg"  x="0px" y="0px"
	 viewBox="0 0 500 500" fill="#fff" xml:space="preserve">
<g>
	<g>
		<path d="M485.316,236.416c-74.3-91.4-154.4-137.8-238-137.8c-33,0-66.5,7.4-99.6,21.9c-26.2,11.5-52.1,27.5-77.1,47.5
			c-42.4,34-67.2,67.6-68.3,69c-3.2,4.4-3.1,10.4,0.4,14.7c74.3,91.3,154.4,137.7,238,137.7c33,0,66.5-7.4,99.6-21.9
			c26.2-11.5,52.1-27.5,77.1-47.5c42.4-34,67.2-67.6,68.3-69C488.916,246.716,488.816,240.716,485.316,236.416z M401.916,301.716
			c-36.4,29-93.9,63.7-161.2,63.7c-73.8,0-145.5-40.9-213.3-121.6c9.4-11.4,29.9-34.6,58.7-57.6c36.4-29,93.9-63.7,161.2-63.7
			c73.8,0,145.5,40.9,213.3,121.6C451.216,255.616,430.616,278.816,401.916,301.716z"/>
		<path d="M281.516,295.816L281.516,295.816c-5.4,3.9-6.6,11.4-2.7,16.8c2.3,3.2,6,4.9,9.7,4.9c2.5,0,4.9-0.8,7-2.3
			c5.4-3.9,6.6-11.4,2.7-16.8C294.416,293.116,286.916,291.916,281.516,295.816z"/>
		<path d="M244.216,156.116c-0.1,0-0.1,0-0.2,0c-6.6,0-12,5.4-12,12s5.4,12,12,12c0,0,0,0,0.1,0c0,0,0,0,0.1,0l0,0
			c6.6,0,12-5.4,12-12S250.816,156.116,244.216,156.116z"/>
		<path d="M319.916,256.216c-6.3-2.1-13.1,1.4-15.1,7.7c-2.1,6.3,1.4,13.1,7.7,15.1c1.2,0.4,2.5,0.6,3.7,0.6c5.1,0,9.8-3.2,11.4-8.3
			C329.616,265.016,326.216,258.216,319.916,256.216z"/>
		<path d="M312.616,209.216c-6.3,2-9.8,8.8-7.7,15.1c1.6,5.1,6.4,8.3,11.4,8.3c1.2,0,2.5-0.2,3.7-0.6c6.3-2,9.8-8.8,7.7-15.1
			C325.616,210.716,318.916,207.216,312.616,209.216z"/>
		<path d="M295.816,173.016L295.816,173.016c-5.4-3.9-12.9-2.7-16.8,2.6c-3.9,5.4-2.7,12.9,2.6,16.8c2.1,1.6,4.6,2.3,7.1,2.3
			c3.7,0,7.4-1.7,9.7-4.9C302.316,184.416,301.216,176.916,295.816,173.016z"/>
		<path d="M175.516,209.116c-6.3-2-13.1,1.4-15.1,7.7l0,0c-2,6.3,1.4,13.1,7.7,15.1c1.2,0.4,2.5,0.6,3.7,0.6c5.1,0,9.8-3.2,11.4-8.3
			C185.316,217.916,181.816,211.116,175.516,209.116z"/>
		<path d="M168.116,256.016c-6.3,2-9.8,8.8-7.7,15.1c1.7,5.1,6.4,8.3,11.4,8.3c1.2,0,2.5-0.2,3.7-0.6c6.3-2,9.8-8.8,7.7-15.1
			C181.116,257.416,174.416,254.016,168.116,256.016z"/>
		<path d="M243.916,307.916c-6.6,0-12,5.4-12,12s5.4,12,12,12s12-5.4,12-12S250.616,307.916,243.916,307.916z"/>
		<path d="M192.316,172.916c-5.4,3.9-6.5,11.4-2.6,16.8c2.3,3.2,6,4.9,9.7,4.9c2.4,0,4.9-0.8,7-2.3c5.4-3.9,6.5-11.4,2.6-16.8
			C205.216,170.116,197.716,169.016,192.316,172.916z"/>
		<path d="M206.416,295.716c-5.3-3.9-12.9-2.7-16.8,2.6c-3.9,5.4-2.7,12.9,2.6,16.8c2.1,1.5,4.6,2.3,7.1,2.3c3.7,0,7.4-1.7,9.7-4.9
			C212.916,307.116,211.816,299.616,206.416,295.716z"/>
	</g>
</g>
</svg>
