<?xml version="1.0" encoding="iso-8859-1"?>
<svg version="1.1" id="close_eye" xmlns="http://www.w3.org/2000/svg" x="0px" y="0px"
	 viewBox="0 0 500 500" fill="#fff" xml:space="preserve">
<g>
	<g>
		<path d="M485.316,236.416c-74.3-91.4-154.4-137.8-238-137.8c-33,0-66.5,7.4-99.6,21.9c-26.2,11.5-52.1,27.5-77.1,47.5
			c-42.4,34-67.2,67.6-68.3,69c-3.2,4.4-3.1,10.4,0.4,14.7c74.3,91.3,154.4,137.7,238,137.7c33,0,66.5-7.4,99.6-21.9
			c26.2-11.5,52.1-27.5,77.1-47.5c42.4-34,67.2-67.6,68.3-69C488.916,246.716,488.816,240.716,485.316,236.416z M401.916,301.716
			c-36.4,29-93.9,63.7-161.2,63.7c-73.8,0-145.5-40.9-213.3-121.6c9.4-11.4,29.9-34.6,58.7-57.6c36.4-29,93.9-63.7,161.2-63.7
			c73.8,0,145.5,40.9,213.3,121.6C451.216,255.616,430.616,278.816,401.916,301.716z"/>
		<path d="M220.516,183.816c1.2,0,2.5-0.2,3.7-0.6c6.3-2,9.8-8.8,7.7-15.1c-2-6.3-8.8-9.8-15.1-7.7c-6.3,2-9.8,8.8-7.7,15.1
			C210.816,180.616,215.516,183.816,220.516,183.816z"/>
		<path d="M305.416,211.416c2.4,0,4.9-0.8,7.1-2.3c5.4-3.9,6.5-11.4,2.6-16.8c-3.9-5.4-11.4-6.5-16.8-2.6s-6.5,11.4-2.6,16.8
			C298.116,209.716,301.716,211.416,305.416,211.416z"/>
		<path d="M175.516,209.116c2.1,1.5,4.6,2.3,7,2.3c3.7,0,7.4-1.7,9.7-4.9c3.9-5.4,2.7-12.9-2.6-16.8c-5.4-3.9-12.9-2.7-16.8,2.6
			C169.016,197.616,170.216,205.216,175.516,209.116z"/>
		<path d="M263.816,183.216c1.2,0.4,2.5,0.6,3.7,0.6c5.1,0,9.8-3.2,11.4-8.3c2-6.3-1.4-13.1-7.7-15.1c-6.3-2-13.1,1.4-15.1,7.7
			C254.016,174.416,257.516,181.116,263.816,183.216z"/>
		<path d="M319.916,232.016c-6.6,0-12,5.4-12,12c0,35.2-28.7,63.9-63.9,63.9s-63.9-28.7-63.9-63.9c0-6.6-5.4-12-12-12s-12,5.4-12,12
			c0,48.5,39.4,87.9,87.9,87.9s87.9-39.4,87.9-87.9C331.916,237.416,326.516,232.016,319.916,232.016z"/>
	</g>
</g>
</svg>
