<svg width="200" height="220" viewBox="0 0 200 220" fill="none" xmlns="http://www.w3.org/2000/svg">
<path d="M187.334 153.667C184.389 153.667 182.001 156.054 182.001 159C182.001 161.946 184.389 164.333 187.334 164.333C190.28 164.333 192.668 161.946 192.668 159C192.668 156.054 190.28 153.667 187.334 153.667ZM186.334 59L186.334 159L188.334 159L188.334 59L186.334 59Z" fill="#333333"/>
<path d="M104.631 206.02C103.17 203.463 99.912 202.574 97.3544 204.035C94.7968 205.496 93.908 208.754 95.3691 211.311C96.8302 213.869 100.088 214.758 102.646 213.297C105.203 211.836 106.092 208.578 104.631 206.02ZM186.441 158.132L99.504 207.797L100.496 209.534L187.433 159.868L186.441 158.132Z" fill="#333333"/>
<path d="M17.953 161.667C19.4258 159.116 18.5518 155.854 16.0009 154.381C13.45 152.908 10.1882 153.782 8.71543 156.333C7.24267 158.884 8.11667 162.146 10.6676 163.619C13.2185 165.092 16.4803 164.218 17.953 161.667ZM100.437 208.134L13.8342 158.134L12.8342 159.866L99.4368 209.866L100.437 208.134Z" fill="#333333"/>
<path d="M13.3342 64.3333C16.2798 64.3333 18.6676 61.9455 18.6676 59C18.6676 56.0545 16.2798 53.6667 13.3342 53.6667C10.3887 53.6667 8.00091 56.0545 8.00091 59C8.00091 61.9455 10.3887 64.3333 13.3342 64.3333ZM14.3342 159L14.3342 59L12.3342 59L12.3342 159L14.3342 159Z" fill="#333333"/>
<path d="M95.318 11.6667C96.7907 14.2176 100.053 15.0916 102.603 13.6188C105.154 12.146 106.028 8.88423 104.556 6.33333C103.083 3.78244 99.821 2.90844 97.2701 4.3812C94.7192 5.85396 93.8452 9.11577 95.318 11.6667ZM13.8342 59.866L100.437 9.86603L99.4368 8.13397L12.8342 58.134L13.8342 59.866Z" fill="#333333"/>
<path d="M182.318 56.3333C180.845 58.8842 181.719 62.146 184.27 63.6188C186.821 65.0916 190.083 64.2176 191.556 61.6667C193.028 59.1158 192.154 55.854 189.603 54.3812C187.053 52.9084 183.791 53.7824 182.318 56.3333ZM99.8342 9.86603L186.437 59.866L187.437 58.134L100.834 8.13397L99.8342 9.86603Z" fill="#333333"/>
<line x1="13" y1="58.1658" x2="187" y2="58.1658" stroke="#333333" stroke-opacity="0.5"/>
<line x1="13" y1="158.166" x2="187" y2="158.166" stroke="#333333" stroke-opacity="0.5"/>
<line x1="13.2495" y1="58.2325" x2="186.938" y2="158.232" stroke="#333333" stroke-opacity="0.5"/>
<line x1="12.7509" y1="158.219" x2="186.751" y2="58.2323" stroke="#333333" stroke-opacity="0.5"/>
<line x1="100.25" y1="9.66577" x2="100.25" y2="210.666" stroke="#333333" stroke-opacity="0.5" stroke-width="0.5"/>
<line x1="13.5677" y1="158.415" x2="99.5677" y2="10.4146" stroke="#333333" stroke-opacity="0.5"/>
<line x1="100.432" y1="9.41366" x2="187.432" y2="158.414" stroke="#333333" stroke-opacity="0.5"/>
<line x1="99.567" y1="207.916" x2="13.567" y2="58.9157" stroke="#333333" stroke-opacity="0.5"/>
<line x1="100.566" y1="208.417" x2="186.566" y2="58.4171" stroke="#333333" stroke-opacity="0.5"/>
<line x1="99.75" y1="9.66577" x2="99.75" y2="210.666" stroke="#333333" stroke-opacity="0.5" stroke-width="0.5"/>
</svg>
