<svg width="282" height="73" viewBox="0 0 282 73" fill="none" xmlns="http://www.w3.org/2000/svg">
<path fill-rule="evenodd" clip-rule="evenodd" d="M276 9H6V6H276V9ZM34.5152 23.52H23.3792V54H18.7472V23.52H7.58719V19.608H34.5152V23.52ZM67.4826 19.608V54H62.8266V38.352H44.2746V54H39.6186V19.608H44.2746V34.944H62.8266V19.608H67.4826ZM97.4908 50.208L97.4668 54H76.2748V19.608H97.4668V23.4H80.9308V34.824H94.3228V38.472H80.9308V50.208H97.4908ZM116.05 50.304C117.378 50.304 118.522 50.152 119.482 49.848C120.442 49.544 121.226 49.12 121.834 48.576C122.458 48.016 122.914 47.36 123.202 46.608C123.49 45.84 123.634 45 123.634 44.088C123.634 42.312 123.002 40.912 121.738 39.888C120.474 38.848 118.578 38.328 116.05 38.328H108.61V50.304H116.05ZM108.61 23.28V35.016H114.754C116.066 35.016 117.202 34.872 118.162 34.584C119.138 34.296 119.938 33.896 120.562 33.384C121.202 32.872 121.674 32.256 121.978 31.536C122.282 30.8 122.434 30 122.434 29.136C122.434 27.104 121.826 25.624 120.61 24.696C119.394 23.752 117.506 23.28 114.946 23.28H108.61ZM114.946 19.608C117.058 19.608 118.874 19.816 120.394 20.232C121.93 20.648 123.186 21.24 124.162 22.008C125.154 22.776 125.882 23.72 126.346 24.84C126.81 25.944 127.042 27.192 127.042 28.584C127.042 29.432 126.906 30.248 126.634 31.032C126.378 31.8 125.986 32.52 125.458 33.192C124.93 33.864 124.258 34.472 123.442 35.016C122.642 35.544 121.698 35.976 120.61 36.312C123.138 36.792 125.034 37.696 126.298 39.024C127.578 40.336 128.218 42.064 128.218 44.208C128.218 45.664 127.946 46.992 127.402 48.192C126.874 49.392 126.09 50.424 125.05 51.288C124.026 52.152 122.762 52.824 121.258 53.304C119.754 53.768 118.042 54 116.122 54H103.978V19.608H114.946ZM154.521 50.088V54H135.009V19.608H139.641V50.088H154.521ZM189.848 36.816C189.848 39.392 189.44 41.76 188.624 43.92C187.808 46.064 186.656 47.912 185.168 49.464C183.68 51.016 181.888 52.224 179.792 53.088C177.712 53.936 175.408 54.36 172.88 54.36C170.352 54.36 168.048 53.936 165.968 53.088C163.888 52.224 162.104 51.016 160.616 49.464C159.128 47.912 157.976 46.064 157.16 43.92C156.344 41.76 155.936 39.392 155.936 36.816C155.936 34.24 156.344 31.88 157.16 29.736C157.976 27.576 159.128 25.72 160.616 24.168C162.104 22.6 163.888 21.384 165.968 20.52C168.048 19.656 170.352 19.224 172.88 19.224C175.408 19.224 177.712 19.656 179.792 20.52C181.888 21.384 183.68 22.6 185.168 24.168C186.656 25.72 187.808 27.576 188.624 29.736C189.44 31.88 189.848 34.24 189.848 36.816ZM185.072 36.816C185.072 34.704 184.784 32.808 184.208 31.128C183.632 29.448 182.816 28.032 181.76 26.88C180.704 25.712 179.424 24.816 177.92 24.192C176.416 23.568 174.736 23.256 172.88 23.256C171.04 23.256 169.368 23.568 167.864 24.192C166.36 24.816 165.072 25.712 164 26.88C162.944 28.032 162.128 29.448 161.552 31.128C160.976 32.808 160.688 34.704 160.688 36.816C160.688 38.928 160.976 40.824 161.552 42.504C162.128 44.168 162.944 45.584 164 46.752C165.072 47.904 166.36 48.792 167.864 49.416C169.368 50.024 171.04 50.328 172.88 50.328C174.736 50.328 176.416 50.024 177.92 49.416C179.424 48.792 180.704 47.904 181.76 46.752C182.816 45.584 183.632 44.168 184.208 42.504C184.784 40.824 185.072 38.928 185.072 36.816ZM228.285 36.816C228.285 39.392 227.877 41.76 227.061 43.92C226.245 46.064 225.093 47.912 223.605 49.464C222.117 51.016 220.325 52.224 218.229 53.088C216.149 53.936 213.845 54.36 211.317 54.36C208.789 54.36 206.485 53.936 204.405 53.088C202.325 52.224 200.541 51.016 199.053 49.464C197.565 47.912 196.413 46.064 195.597 43.92C194.781 41.76 194.373 39.392 194.373 36.816C194.373 34.24 194.781 31.88 195.597 29.736C196.413 27.576 197.565 25.72 199.053 24.168C200.541 22.6 202.325 21.384 204.405 20.52C206.485 19.656 208.789 19.224 211.317 19.224C213.845 19.224 216.149 19.656 218.229 20.52C220.325 21.384 222.117 22.6 223.605 24.168C225.093 25.72 226.245 27.576 227.061 29.736C227.877 31.88 228.285 34.24 228.285 36.816ZM223.509 36.816C223.509 34.704 223.221 32.808 222.645 31.128C222.069 29.448 221.253 28.032 220.197 26.88C219.141 25.712 217.861 24.816 216.357 24.192C214.853 23.568 213.173 23.256 211.317 23.256C209.477 23.256 207.805 23.568 206.301 24.192C204.797 24.816 203.509 25.712 202.437 26.88C201.381 28.032 200.565 29.448 199.989 31.128C199.413 32.808 199.125 34.704 199.125 36.816C199.125 38.928 199.413 40.824 199.989 42.504C200.565 44.168 201.381 45.584 202.437 46.752C203.509 47.904 204.797 48.792 206.301 49.416C207.805 50.024 209.477 50.328 211.317 50.328C213.173 50.328 214.853 50.024 216.357 49.416C217.861 48.792 219.141 47.904 220.197 46.752C221.253 45.584 222.069 44.168 222.645 42.504C223.221 40.824 223.509 38.928 223.509 36.816ZM270.731 19.608V54H266.651V28.728C266.651 28.392 266.659 28.032 266.675 27.648C266.707 27.264 266.739 26.872 266.771 26.472L254.963 47.976C254.595 48.696 254.035 49.056 253.283 49.056H252.611C251.859 49.056 251.299 48.696 250.931 47.976L238.883 26.376C238.979 27.224 239.027 28.008 239.027 28.728V54H234.947V19.608H238.379C238.795 19.608 239.115 19.648 239.339 19.728C239.563 19.808 239.779 20.032 239.987 20.4L251.867 41.568C252.059 41.952 252.243 42.352 252.419 42.768C252.611 43.184 252.787 43.608 252.947 44.04C253.107 43.608 253.275 43.184 253.451 42.768C253.627 42.336 253.819 41.928 254.027 41.544L265.691 20.4C265.883 20.032 266.091 19.808 266.315 19.728C266.555 19.648 266.883 19.608 267.299 19.608H270.731ZM6 67H276V64H6V67Z" fill="white"/>
</svg>
