<?xml version="1.0" encoding="utf-8"?>
<svg viewBox="594.946 139.425 39.409 21.002" width="39.409" height="21.002" fill="#efefef"
     xmlns="http://www.w3.org/2000/svg">
    <path d="M 17.891 1.004 C 17.762 1.02 17.633 1.059 17.516 1.125 C 17.031 1.395 16.859 2.004 17.125 2.484 L 19.359 6.508 C 15.781 9.438 13.211 13.598 12.344 18.438 C 12.184 19.328 12.422 20.234 13 20.926 C 13.566 21.609 14.406 22 15.297 22 L 48.703 22 C 49.594 22 50.434 21.609 51 20.926 C 51.578 20.238 51.816 19.332 51.656 18.441 C 50.789 13.598 48.219 9.438 44.641 6.512 L 46.875 2.484 C 47.141 2.004 46.969 1.395 46.484 1.125 C 46.004 0.855 45.395 1.031 45.125 1.516 L 43.012 5.32 C 39.836 3.219 36.047 2 32 2 C 27.953 2 24.164 3.219 20.988 5.32 L 18.875 1.516 C 18.672 1.152 18.281 0.961 17.891 1.004 Z M 32 4 C 40.711 4 48.152 10.223 49.688 18.797 C 49.746 19.102 49.664 19.41 49.469 19.645 C 49.355 19.777 49.109 20 48.703 20 L 15.297 20 C 14.891 20 14.645 19.777 14.531 19.645 C 14.336 19.41 14.254 19.102 14.309 18.797 C 15.848 10.223 23.289 4 32 4 Z M 24 10 C 22.348 10 21 11.348 21 13 C 21 14.652 22.348 16 24 16 C 25.652 16 27 14.652 27 13 C 27 11.348 25.652 10 24 10 Z M 40 10 C 38.348 10 37 11.348 37 13 C 37 14.652 38.348 16 40 16 C 41.652 16 43 14.652 43 13 C 43 11.348 41.652 10 40 10 Z M 24 11.688 C 24.723 11.688 25.313 12.273 25.313 13 C 25.313 13.727 24.723 14.313 24 14.313 C 23.277 14.313 22.688 13.727 22.688 13 C 22.688 12.273 23.277 11.688 24 11.688 Z M 40 11.75 C 40.688 11.75 41.25 12.309 41.25 13 C 41.25 13.691 40.688 14.25 40 14.25 C 39.313 14.25 38.75 13.691 38.75 13 C 38.75 12.309 39.313 11.75 40 11.75 Z"
          transform="matrix(1, 0, 0, 1, 582.650818, 138.427338)"/>
</svg>
